<svg width="120" height="121" viewBox="0 0 120 121" fill="none" xmlns="http://www.w3.org/2000/svg">
<g clip-path="url(#clip0_2615_692)">
<path d="M47.8125 54.1356V35.6331H61.1625C68.46 35.6331 72.7275 39.0606 72.7275 44.9106C72.7275 50.9256 68.1975 54.1356 59.4975 54.1356H47.8125ZM47.8125 82.3506H62.0475C70.9275 82.3506 75.6225 78.7506 75.6225 72.0231C75.6225 65.3856 70.7475 61.9131 61.4775 61.9131H47.8125V82.3506Z" fill="#2D2D2D"/>
<path d="M30.0146 0.697998C22.0582 0.697998 14.4275 3.8587 8.80145 9.48479C3.17535 15.1109 0.0146484 22.7415 0.0146484 30.698V90.698C0.0146484 98.6545 3.17535 106.285 8.80145 111.911C14.4275 117.537 22.0582 120.698 30.0146 120.698H90.0146C97.9711 120.698 105.602 117.537 111.228 111.911C116.854 106.285 120.015 98.6545 120.015 90.698V30.698C120.015 22.7415 116.854 15.1109 111.228 9.48479C105.602 3.8587 97.9711 0.697998 90.0146 0.697998L30.0146 0.697998ZM37.9646 90.698V27.2855H63.4572C75.3596 27.2855 82.5296 33.353 82.5296 43.1105C82.5296 49.7405 77.6546 55.673 71.4072 56.7305V57.4805C79.9797 58.358 85.6871 64.463 85.6871 72.728C85.6871 83.888 77.5571 90.698 64.0271 90.698H37.9646Z" fill="#2D2D2D"/>
</g>
<defs>
<clipPath id="clip0_2615_692">
<rect width="120" height="120" fill="white" transform="translate(0 0.697998)"/>
</clipPath>
</defs>
</svg>
