<svg width="121" height="170" viewBox="0 0 121 170" fill="none" xmlns="http://www.w3.org/2000/svg">
<g clip-path="url(#clip0_2620_643)">
<path d="M60.4282 168.873L11.5969 155.317L0.714844 33.2644H120.288L109.394 155.298L60.4282 168.873Z" fill="#2D2D2D"/>
<path d="M100.068 147.527L109.377 43.2439H60.501V158.497L100.068 147.527Z" fill="#2D2D2D"/>
<path d="M25.6609 88.5116L27.0023 103.481H60.5006V88.5116H25.6609ZM22.9648 58.2136L24.3255 73.1829H60.5006V58.2136H22.9648ZM60.5006 127.388L60.435 127.406L43.7639 122.904L42.6981 110.966H27.6712L29.7682 134.47L60.4317 142.981L60.5006 142.963V127.388Z" fill="#EBEBEB"/>
<path d="M28.8555 0.0957031H46.9852V7.67757H36.4373V15.2594H46.9862V22.8408H28.8555V0.0957031ZM50.6116 0.0957031H68.7419V6.68859H58.1935V8.00708H68.7419V23.1708H50.6121V16.2475H61.1604V14.929H50.6112L50.6116 0.0957031ZM72.3683 0.0957031H90.4985V6.68859H79.9501V8.00708H90.4985V23.1708H72.3683V16.2475H82.9166V14.929H72.3687V0.0957031H72.3683Z" fill="#2D2D2D"/>
<path d="M95.2454 88.5116L97.9475 58.2136H60.4497V73.1829H81.5426L80.1805 88.5116H60.4497V103.481H78.8827L77.1447 122.895L60.4492 127.401V142.974L91.1371 134.47L91.3621 131.94L94.8803 92.5312L95.2454 88.5116Z" fill="white"/>
</g>
<defs>
<clipPath id="clip0_2620_643">
<rect width="120" height="169.205" fill="white" transform="translate(0.500977 0.0957031)"/>
</clipPath>
</defs>
</svg>
