<svg width="120" height="121" viewBox="0 0 120 121" fill="none" xmlns="http://www.w3.org/2000/svg">
<path d="M43.9049 37.1097C44.2535 36.761 44.5301 36.3471 44.7188 35.8916C44.9075 35.436 45.0046 34.9478 45.0046 34.4547C45.0046 33.9616 44.9075 33.4734 44.7188 33.0178C44.5301 32.5623 44.2535 32.1483 43.9049 31.7997C43.5562 31.451 43.1423 31.1745 42.6867 30.9858C42.2312 30.7971 41.7429 30.7 41.2499 30.7C40.7568 30.7 40.2685 30.7971 39.813 30.9858C39.3574 31.1745 38.9435 31.451 38.5949 31.7997L12.3449 58.0497C11.9956 58.398 11.7186 58.8118 11.5295 59.2674C11.3405 59.723 11.2432 60.2114 11.2432 60.7047C11.2432 61.1979 11.3405 61.6863 11.5295 62.1419C11.7186 62.5975 11.9956 63.0113 12.3449 63.3597L38.5949 89.6097C39.299 90.3138 40.254 90.7094 41.2499 90.7094C42.2457 90.7094 43.2007 90.3138 43.9049 89.6097C44.609 88.9055 45.0046 87.9505 45.0046 86.9547C45.0046 85.9589 44.609 85.0038 43.9049 84.2997L20.3024 60.7047L43.9049 37.1097ZM76.0949 37.1097C75.3907 36.4055 74.9951 35.4505 74.9951 34.4547C74.9951 33.4589 75.3907 32.5038 76.0949 31.7997C76.799 31.0955 77.7541 30.7 78.7499 30.7C79.7457 30.7 80.7007 31.0955 81.4049 31.7997L107.655 58.0497C108.004 58.398 108.281 58.8118 108.47 59.2674C108.659 59.723 108.757 60.2114 108.757 60.7047C108.757 61.1979 108.659 61.6863 108.47 62.1419C108.281 62.5975 108.004 63.0113 107.655 63.3597L81.4049 89.6097C80.7007 90.3138 79.7457 90.7094 78.7499 90.7094C77.7541 90.7094 76.799 90.3138 76.0949 89.6097C75.3907 88.9055 74.9951 87.9505 74.9951 86.9547C74.9951 85.9589 75.3907 85.0038 76.0949 84.2997L99.6974 60.7047L76.0949 37.1097Z" fill="white"/>
</svg>
