<svg width="120" height="121" viewBox="0 0 120 121" fill="none" xmlns="http://www.w3.org/2000/svg">
<path d="M7.5 18.9546C7.5 15.9709 8.68526 13.1094 10.795 10.9996C12.9048 8.88985 15.7663 7.70459 18.75 7.70459H41.25C44.2337 7.70459 47.0952 8.88985 49.205 10.9996C51.3147 13.1094 52.5 15.9709 52.5 18.9546V41.4546C52.5 44.4383 51.3147 47.2998 49.205 49.4095C47.0952 51.5193 44.2337 52.7046 41.25 52.7046H18.75C15.7663 52.7046 12.9048 51.5193 10.795 49.4095C8.68526 47.2998 7.5 44.4383 7.5 41.4546V18.9546ZM18.75 15.2046C17.7554 15.2046 16.8016 15.5997 16.0984 16.3029C15.3951 17.0062 15 17.96 15 18.9546V41.4546C15 42.4492 15.3951 43.403 16.0984 44.1062C16.8016 44.8095 17.7554 45.2046 18.75 45.2046H41.25C42.2446 45.2046 43.1984 44.8095 43.9016 44.1062C44.6049 43.403 45 42.4492 45 41.4546V18.9546C45 17.96 44.6049 17.0062 43.9016 16.3029C43.1984 15.5997 42.2446 15.2046 41.25 15.2046H18.75ZM67.5 18.9546C67.5 15.9709 68.6853 13.1094 70.795 10.9996C72.9048 8.88985 75.7663 7.70459 78.75 7.70459H101.25C104.234 7.70459 107.095 8.88985 109.205 10.9996C111.315 13.1094 112.5 15.9709 112.5 18.9546V41.4546C112.5 44.4383 111.315 47.2998 109.205 49.4095C107.095 51.5193 104.234 52.7046 101.25 52.7046H78.75C75.7663 52.7046 72.9048 51.5193 70.795 49.4095C68.6853 47.2998 67.5 44.4383 67.5 41.4546V18.9546ZM78.75 15.2046C77.7554 15.2046 76.8016 15.5997 76.0983 16.3029C75.3951 17.0062 75 17.96 75 18.9546V41.4546C75 42.4492 75.3951 43.403 76.0983 44.1062C76.8016 44.8095 77.7554 45.2046 78.75 45.2046H101.25C102.245 45.2046 103.198 44.8095 103.902 44.1062C104.605 43.403 105 42.4492 105 41.4546V18.9546C105 17.96 104.605 17.0062 103.902 16.3029C103.198 15.5997 102.245 15.2046 101.25 15.2046H78.75ZM7.5 78.9546C7.5 75.9709 8.68526 73.1094 10.795 70.9996C12.9048 68.8899 15.7663 67.7046 18.75 67.7046H41.25C44.2337 67.7046 47.0952 68.8899 49.205 70.9996C51.3147 73.1094 52.5 75.9709 52.5 78.9546V101.455C52.5 104.438 51.3147 107.3 49.205 109.41C47.0952 111.519 44.2337 112.705 41.25 112.705H18.75C15.7663 112.705 12.9048 111.519 10.795 109.41C8.68526 107.3 7.5 104.438 7.5 101.455V78.9546ZM18.75 75.2046C17.7554 75.2046 16.8016 75.5997 16.0984 76.3029C15.3951 77.0062 15 77.96 15 78.9546V101.455C15 102.449 15.3951 103.403 16.0984 104.106C16.8016 104.81 17.7554 105.205 18.75 105.205H41.25C42.2446 105.205 43.1984 104.81 43.9016 104.106C44.6049 103.403 45 102.449 45 101.455V78.9546C45 77.96 44.6049 77.0062 43.9016 76.3029C43.1984 75.5997 42.2446 75.2046 41.25 75.2046H18.75ZM67.5 78.9546C67.5 75.9709 68.6853 73.1094 70.795 70.9996C72.9048 68.8899 75.7663 67.7046 78.75 67.7046H101.25C104.234 67.7046 107.095 68.8899 109.205 70.9996C111.315 73.1094 112.5 75.9709 112.5 78.9546V101.455C112.5 104.438 111.315 107.3 109.205 109.41C107.095 111.519 104.234 112.705 101.25 112.705H78.75C75.7663 112.705 72.9048 111.519 70.795 109.41C68.6853 107.3 67.5 104.438 67.5 101.455V78.9546ZM78.75 75.2046C77.7554 75.2046 76.8016 75.5997 76.0983 76.3029C75.3951 77.0062 75 77.96 75 78.9546V101.455C75 102.449 75.3951 103.403 76.0983 104.106C76.8016 104.81 77.7554 105.205 78.75 105.205H101.25C102.245 105.205 103.198 104.81 103.902 104.106C104.605 103.403 105 102.449 105 101.455V78.9546C105 77.96 104.605 77.0062 103.902 76.3029C103.198 75.5997 102.245 75.2046 101.25 75.2046H78.75Z" fill="#212529"/>
</svg>
