<svg width="120" height="170" viewBox="0 0 120 170" fill="none" xmlns="http://www.w3.org/2000/svg">
<g clip-path="url(#clip0_2618_646)">
<path d="M10.9204 155.784L0 33.2949H120L109.068 155.765L59.9264 169.388L10.9204 155.784Z" fill="#2D2D2D"/>
<path d="M60 158.975L99.7085 147.966L109.051 43.3101H60V158.975Z" fill="#2D2D2D"/>
<path d="M60.0001 88.7395H40.121L38.7481 73.356H60.0001V58.333H22.3301L22.6897 62.3634L26.382 103.762H60.0001V88.7395ZM60.0001 127.755L59.9346 127.773L43.2033 123.255L42.1337 111.274H27.0532L29.1579 134.862L59.931 143.405L60.0001 143.385V127.755Z" fill="#EBEBEB"/>
<path d="M11.165 0.00732422H18.7994V7.55006H25.7831V0.00732422H33.4178V22.8486H25.7834V15.2H18.7997V22.8486H11.1657V0.00732422H11.165ZM43.4572 7.58182H36.7366V0.00732422H57.8165V7.58182H51.0926V22.8486H43.4579L43.4572 7.58182ZM61.1618 0.00732422H69.122L74.0189 8.03306L78.9111 0.00732422H86.8746V22.8486H79.2717V11.5272L74.0192 19.6485H73.8882L68.6318 11.5272V22.8486H61.1621V0.00732422H61.1618ZM90.6741 0.00732422H98.3108V15.2986H109.047V22.8486H90.6741V0.00732422Z" fill="#2D2D2D"/>
<path d="M59.9482 88.7395V103.762H78.4468L76.703 123.246L59.9482 127.768V143.397L90.7454 134.862L90.9714 132.324L94.5016 92.7735L94.8681 88.7395H90.8199H59.9482ZM59.9482 58.333V73.356H96.2351L96.5365 69.9793L97.2209 62.3634L97.5802 58.333H59.9482Z" fill="white"/>
</g>
<defs>
<clipPath id="clip0_2618_646">
<rect width="120" height="169.396" fill="white"/>
</clipPath>
</defs>
</svg>
