<svg width="120" height="121" viewBox="0 0 120 121" fill="none" xmlns="http://www.w3.org/2000/svg">
<g clip-path="url(#clip0_2617_705)">
<path fill-rule="evenodd" clip-rule="evenodd" d="M91.969 111.29C81.499 111.29 74.731 106.298 71.431 99.77L80.611 94.454C83.029 98.402 86.167 101.3 91.729 101.3C96.397 101.3 99.379 98.966 99.379 95.744C99.379 90.896 92.911 89 88.345 87.044C80.209 83.582 74.809 79.232 74.809 70.046C74.809 61.592 81.253 55.148 91.327 55.148C98.491 55.148 103.651 57.644 107.353 64.166L98.575 69.806C96.643 66.344 94.549 64.976 91.327 64.976C88.021 64.976 85.927 67.07 85.927 69.806C85.927 73.19 88.021 74.558 92.857 76.652C102.991 80.996 110.659 84.41 110.659 95.582C110.659 105.734 102.685 111.29 91.969 111.29ZM66.001 94.292C66.001 105.974 58.807 112.148 48.817 112.148C39.793 112.148 34.387 108.698 31.729 102.698H31.573L40.747 96.284C42.517 99.422 44.113 101.648 47.977 101.648C51.685 101.648 54.001 99.77 54.001 94.136V54.698H66.001V94.292ZM0.000976562 120.698H120.001V0.697998H0.000976562V120.698Z" fill="#2D2D2D"/>
</g>
<defs>
<clipPath id="clip0_2617_705">
<rect width="120" height="120" fill="white" transform="translate(0.000976562 0.697998)"/>
</clipPath>
</defs>
</svg>
