<svg width="120" height="21" viewBox="0 0 120 21" fill="none" xmlns="http://www.w3.org/2000/svg">
<path d="M9.10326 2.0007C9.47008 1.25746 10.5299 1.25746 10.8967 2.0007L12.7063 5.66719C12.8519 5.96233 13.1335 6.1669 13.4592 6.21423L17.5054 6.80218C18.3256 6.92136 18.6531 7.92934 18.0596 8.50787L15.1318 11.3618C14.8961 11.5916 14.7885 11.9226 14.8442 12.247L15.5353 16.2768C15.6754 17.0937 14.818 17.7167 14.0844 17.331L10.4653 15.4284C10.174 15.2752 9.82598 15.2752 9.53466 15.4284L5.91562 17.331C5.18199 17.7167 4.32456 17.0937 4.46467 16.2768L5.15585 12.247C5.21148 11.9226 5.10393 11.5916 4.86825 11.3618L1.94038 8.50787C1.34687 7.92934 1.67438 6.92136 2.4946 6.80218L6.54081 6.21423C6.86652 6.1669 7.14808 5.96233 7.29374 5.66719L9.10326 2.0007Z" fill="#2D2D2D"/>
<path d="M34.1033 2.0007C34.4701 1.25746 35.5299 1.25746 35.8967 2.0007L37.7063 5.66719C37.8519 5.96233 38.1335 6.1669 38.4592 6.21423L42.5054 6.80218C43.3256 6.92136 43.6531 7.92934 43.0596 8.50787L40.1318 11.3618C39.8961 11.5916 39.7885 11.9226 39.8442 12.247L40.5353 16.2768C40.6754 17.0937 39.818 17.7167 39.0844 17.331L35.4653 15.4284C35.174 15.2752 34.826 15.2752 34.5347 15.4284L30.9156 17.331C30.182 17.7167 29.3246 17.0937 29.4647 16.2768L30.1558 12.247C30.2115 11.9226 30.1039 11.5916 29.8682 11.3618L26.9404 8.50787C26.3469 7.92934 26.6744 6.92136 27.4946 6.80218L31.5408 6.21423C31.8665 6.1669 32.1481 5.96233 32.2937 5.66719L34.1033 2.0007Z" fill="#2D2D2D"/>
<path d="M59.1033 2.0007C59.4701 1.25746 60.5299 1.25746 60.8967 2.0007L62.7063 5.66719C62.8519 5.96233 63.1335 6.1669 63.4592 6.21423L67.5054 6.80218C68.3256 6.92136 68.6531 7.92934 68.0596 8.50787L65.1318 11.3618C64.8961 11.5916 64.7885 11.9226 64.8442 12.247L65.5353 16.2768C65.6754 17.0937 64.818 17.7167 64.0844 17.331L60.4653 15.4284C60.174 15.2752 59.826 15.2752 59.5347 15.4284L55.9156 17.331C55.182 17.7167 54.3246 17.0937 54.4647 16.2768L55.1558 12.247C55.2115 11.9226 55.1039 11.5916 54.8682 11.3618L51.9404 8.50787C51.3469 7.92934 51.6744 6.92136 52.4946 6.80218L56.5408 6.21423C56.8665 6.1669 57.1481 5.96233 57.2937 5.66719L59.1033 2.0007Z" fill="#2D2D2D"/>
<path d="M84.1033 2.0007C84.4701 1.25746 85.5299 1.25746 85.8967 2.0007L87.7063 5.66719C87.8519 5.96233 88.1335 6.1669 88.4592 6.21423L92.5054 6.80218C93.3256 6.92136 93.6531 7.92934 93.0596 8.50787L90.1318 11.3618C89.8961 11.5916 89.7885 11.9226 89.8442 12.247L90.5353 16.2768C90.6754 17.0937 89.818 17.7167 89.0844 17.331L85.4653 15.4284C85.174 15.2752 84.826 15.2752 84.5347 15.4284L80.9156 17.331C80.182 17.7167 79.3246 17.0937 79.4647 16.2768L80.1558 12.247C80.2115 11.9226 80.1039 11.5916 79.8682 11.3618L76.9404 8.50787C76.3469 7.92934 76.6744 6.92136 77.4946 6.80218L81.5408 6.21423C81.8665 6.1669 82.1481 5.96233 82.2937 5.66719L84.1033 2.0007Z" fill="#2D2D2D"/>
<path d="M109.103 2.0007C109.47 1.25746 110.53 1.25746 110.897 2.0007L112.706 5.66719C112.852 5.96233 113.133 6.1669 113.459 6.21423L117.505 6.80218C118.326 6.92136 118.653 7.92934 118.06 8.50787L115.132 11.3618C114.896 11.5916 114.789 11.9226 114.844 12.247L115.535 16.2768C115.675 17.0937 114.818 17.7167 114.084 17.331L110.465 15.4284C110.174 15.2752 109.826 15.2752 109.535 15.4284L105.916 17.331C105.182 17.7167 104.325 17.0937 104.465 16.2768L105.156 12.247C105.211 11.9226 105.104 11.5916 104.868 11.3618L101.94 8.50787C101.347 7.92934 101.674 6.92136 102.495 6.80218L106.541 6.21423C106.867 6.1669 107.148 5.96233 107.294 5.66719L109.103 2.0007Z" fill="#2D2D2D"/>
</svg>
