<svg width="120" height="121" viewBox="0 0 120 121" fill="none" xmlns="http://www.w3.org/2000/svg">
<g clip-path="url(#clip0_2626_634)">
<path d="M82.5 8.20459C84.4891 8.20459 86.3968 8.99477 87.8033 10.4013C89.2098 11.8078 90 13.7155 90 15.7046V105.705C90 107.694 89.2098 109.601 87.8033 111.008C86.3968 112.414 84.4891 113.205 82.5 113.205H37.5C35.5109 113.205 33.6032 112.414 32.1967 111.008C30.7902 109.601 30 107.694 30 105.705V15.7046C30 13.7155 30.7902 11.8078 32.1967 10.4013C33.6032 8.99477 35.5109 8.20459 37.5 8.20459H82.5ZM37.5 0.70459C33.5218 0.70459 29.7064 2.28494 26.8934 5.09799C24.0804 7.91103 22.5 11.7263 22.5 15.7046V105.705C22.5 109.683 24.0804 113.498 26.8934 116.311C29.7064 119.124 33.5218 120.705 37.5 120.705H82.5C86.4782 120.705 90.2936 119.124 93.1066 116.311C95.9196 113.498 97.5 109.683 97.5 105.705V15.7046C97.5 11.7263 95.9196 7.91103 93.1066 5.09799C90.2936 2.28494 86.4782 0.70459 82.5 0.70459L37.5 0.70459Z" fill="#212529"/>
<path d="M60 105.705C61.9891 105.705 63.8968 104.914 65.3033 103.508C66.7098 102.101 67.5 100.194 67.5 98.2046C67.5 96.2155 66.7098 94.3078 65.3033 92.9013C63.8968 91.4948 61.9891 90.7046 60 90.7046C58.0109 90.7046 56.1032 91.4948 54.6967 92.9013C53.2902 94.3078 52.5 96.2155 52.5 98.2046C52.5 100.194 53.2902 102.101 54.6967 103.508C56.1032 104.914 58.0109 105.705 60 105.705Z" fill="#212529"/>
</g>
<defs>
<clipPath id="clip0_2626_634">
<rect width="120" height="120" fill="white" transform="translate(0 0.70459)"/>
</clipPath>
</defs>
</svg>
