<svg width="121" height="121" viewBox="0 0 121 121" fill="none" xmlns="http://www.w3.org/2000/svg">
<path d="M118.228 55.3504L65.8334 2.96293C65.116 2.24519 64.2643 1.67583 63.3268 1.28737C62.3893 0.898914 61.3844 0.698975 60.3697 0.698975C59.3549 0.698975 58.35 0.898914 57.4125 1.28737C56.4751 1.67583 55.6233 2.24519 54.9059 2.96293L44.0309 13.8379L57.8309 27.6379C59.4584 27.0822 61.2094 26.9953 62.884 27.387C64.5585 27.7788 66.0893 28.6334 67.3014 29.8534C68.5136 31.0733 69.3583 32.6095 69.7393 34.2866C70.1202 35.9636 70.022 37.714 69.4559 39.3379L82.7534 52.6429C84.7208 51.9502 86.8653 51.9481 88.834 52.637C90.8027 53.3258 92.4782 54.6645 93.5844 56.4327C94.6907 58.2008 95.1619 60.293 94.9205 62.3647C94.679 64.4364 93.7392 66.3641 92.2559 67.8304C90.7543 69.3413 88.7747 70.2839 86.6553 70.4972C84.5359 70.7106 82.4081 70.1816 80.6355 69.0004C78.8628 67.8192 77.5553 66.0592 76.9362 64.0211C76.317 61.9829 76.4247 59.793 77.2409 57.8254L64.8434 45.4204V78.0679C66.7278 79.0007 68.2357 80.5512 69.1155 82.4609C69.9954 84.3706 70.1942 86.5242 69.6787 88.5627C69.1632 90.6012 67.9647 92.4015 66.2828 93.6634C64.601 94.9254 62.5374 95.5728 60.4361 95.4977C58.3348 95.4227 56.3226 94.6297 54.7351 93.251C53.1475 91.8723 52.0805 89.9911 51.7118 87.921C51.343 85.8509 51.6949 83.717 52.7088 81.8749C53.7227 80.0329 55.3372 78.5939 57.2834 77.7979V44.8504C56.1606 44.3903 55.1399 43.7125 54.2803 42.8561C53.4206 41.9997 52.739 40.9816 52.2746 39.8605C51.8103 38.7395 51.5725 37.5375 51.5748 36.3241C51.5772 35.1107 51.8197 33.9097 52.2884 32.7904L38.6909 19.1854L2.7659 55.1104C2.04817 55.8278 1.47881 56.6796 1.09035 57.6171C0.701893 58.5546 0.501953 59.5594 0.501953 60.5742C0.501953 61.589 0.701893 62.5938 1.09035 63.5313C1.47881 64.4688 2.04817 65.3205 2.7659 66.0379L55.1609 118.433C55.8783 119.151 56.7301 119.72 57.6675 120.108C58.605 120.497 59.6099 120.697 60.6247 120.697C61.6394 120.697 62.6443 120.497 63.5818 120.108C64.5193 119.72 65.371 119.151 66.0884 118.433L118.236 66.2854C118.954 65.568 119.523 64.7163 119.911 63.7788C120.3 62.8413 120.5 61.8365 120.5 60.8217C120.5 59.8069 120.3 58.8021 119.911 57.8646C119.523 56.9271 118.954 56.0753 118.236 55.3579" fill="#2D2D2D"/>
</svg>
